{"title":"Moskow Parad Pobedi 2010-May-09.avi","uid":5569363,"size":2217918464,"categoryP":"video","categoryS":"movie_clips","magnet":"?xt=urn:btih:7929ace9c861e5c91dc6c11414b828b9376fff2d&amp;dn=Moskow+Parad+Pobedi+2010-May-09.avi&amp;tr=udp%3A%2F%2Ftracker.openbittorrent.com%3A80&amp;tr=udp%3A%2F%2Fopen.demonii.com%3A1337&amp;tr=udp%3A%2F%2Ftracker.coppersurfer.tk%3A6969&amp;tr=udp%3A%2F%2Fexodus.desync.com%3A6969","seeders":0,"leechers":0,"uploader":"plamen234","files":1,"time":1274215321,"description":"I. Source\ndownload http://www.torrentroom.com/torrent/2671098-%D0%9F%D0%B0%D1%80%D0%B0%D0%B4-2010.html\nFormat                           : MPEG-TS\nFile size                        : 2.47 GiB\n\nVideo\nID                               : 330 (0x14A)\nMenu ID                          : 10801 (0x2A31)\nFormat                           : MPEG Video\nFormat version                   : Version 2\nFormat profile                   : Main@Main\nFormat settings, BVOP            : Yes\nFormat settings, Matrix          : Default\nFormat settings, GOP             : M=3, N=12\nBit rate mode                    : Variable\nBit rate                         : 4 288 Kbps\nNominal bit rate                 : 6 000 Kbps\nWidth                            : 720 pixels\nHeight                           : 576 pixels\nDisplay aspect ratio             : 4:3\nFrame rate                       : 25.000 fps\nStandard                         : PAL\nColor space                      : YUV\nChroma subsampling               : 4:2:0\nBit depth                        : 8 bits\nScan type                        : Interlaced\nScan order                       : Top Field First\nBits/(Pixel*Frame)               : 0.414\nStream size                      : 2.25 GiB (91%)\n\nAudio\nFormat                           : MPEG Audio\nFormat profile                   : Layer 2\nBit rate mode                    : Constant\nBit rate                         : 192 Kbps\nChannel(s)                       : 2 channels\nSampling rate                    : 48.0 KHz\nVideo delay                      : -106ms\nStream size                      : 103 MiB (4%)\nLanguage                         : Russian\n***************************************************************************************************************\n\nII. AVIsynth script\nLoadPlugin(&quot;D:ProgramsmeGUItoolsdgindexDGDecode.dll&quot;)\nmpeg2source(&quot;video.d2v&quot;, cpu=6, idct=5, info=3)\nLoadPlugin(&quot;D:ProgramsmeGUItoolsavisynth_pluginColorMatrix.dll&quot;)\nColorMatrix(hints=true, interlaced=true, threads=0)\nLoadPlugin(&quot;D:ProgramsmeGUItoolsyadifyadif.dll&quot;)\nYadif(order=1)\ncrop(8,8,-8,-8)\n***************************************************************************************************************\n\nIII. Final clip\nFormat profile                   : OpenDML\nFile size                        : 2.07 GiB\nDuration                         : 1h 13mn\nWriting application              : VirtualDubMod 1.5.10.3 | www.virtualdub-fr.org || (build 2550/release)\n\nVideo\nFormat                           : MPEG-4 Visual\nFormat profile                   : Advanced Simple@L5\nFormat settings, BVOP            : Yes\nFormat settings, QPel            : Yes\nFormat settings, GMC             : No warppoints\nFormat settings, Matrix          : Default (MPEG)\nCodec ID                         : XVID\nBit rate                         : 3 871 Kbps\nWidth                            : 704 pixels\nHeight                           : 560 pixels\nDisplay aspect ratio             : 5:4\nFrame rate                       : 25.000 fps\nColor space                      : YUV\nChroma subsampling               : 4:2:0\nBit depth                        : 8 bits\nScan type                        : Progressive\nBits/(Pixel*Frame)               : 0.393\nStream size                      : 1.99 GiB (96%)\nWriting library                  : XviD 1.2.1 (UTC 2008-12-04)\n\nAudio\nFormat                           : MPEG Audio\nFormat version                   : Version 1\nFormat profile                   : Layer 3\nMode                             : Joint stereo\nCodec ID                         : 55\nCodec ID/Hint                    : MP3\nBit rate mode                    : Constant\nBit rate                         : 128 Kbps\nChannel(s)                       : 2 channels\nSampling rate                    : 48.0 KHz\nStream size                      : 67.5 MiB (3%)\nAlignment                        : Split accross interleaves\nInterleave, duration             : 40 ms (1.00 video frame)\nInterleave, preload duration     : 500 ms\n***********************************************************************\nIV. Any comments (on quality, encoding, etc.) are welcome ;-)\n","torrent":{"xt":"urn:btih:7929ace9c861e5c91dc6c11414b828b9376fff2d","amp;dn":"Moskow+Parad+Pobedi+2010-May-09.avi","amp;tr":["udp%3A%2F%2Ftracker.openbittorrent.com%3A80","udp%3A%2F%2Fopen.demonii.com%3A1337","udp%3A%2F%2Ftracker.coppersurfer.tk%3A6969","udp%3A%2F%2Fexodus.desync.com%3A6969"],"infoHash":"7929ace9c861e5c91dc6c11414b828b9376fff2d","infoHashBuffer":{"type":"Buffer","data":[121,41,172,233,200,97,229,201,29,198,193,20,20,184,40,185,55,111,255,45]},"announce":[],"urlList":[]}}